<svg width="24" height="28" viewBox="0 0 24 28" fill="none" xmlns="http://www.w3.org/2000/svg">
	<path d="M13.99 0C8.47 0 4 4.48 4 10C4 15.52 8.47 20 13.99 20C19.52 20 24 15.52 24 10C24 4.48 19.52 0 13.99 0ZM20.92 6H17.97C17.65 4.75 17.19 3.55 16.59 2.44C18.43 3.07 19.96 4.35 20.92 6ZM14 2.04C14.83 3.24 15.48 4.57 15.91 6H12.09C12.52 4.57 13.17 3.24 14 2.04ZM6.26 12C6.1 11.36 6 10.69 6 10C6 9.31 6.1 8.64 6.26 8H9.64C9.56 8.66 9.5 9.32 9.5 10C9.5 10.68 9.56 11.34 9.64 12H6.26ZM7.08 14H10.03C10.35 15.25 10.81 16.45 11.41 17.56C9.57 16.93 8.04 15.66 7.08 14V14ZM10.03 6H7.08C8.04 4.34 9.57 3.07 11.41 2.44C10.81 3.55 10.35 4.75 10.03 6V6ZM14 17.96C13.17 16.76 12.52 15.43 12.09 14H15.91C15.48 15.43 14.83 16.76 14 17.96ZM16.34 12H11.66C11.57 11.34 11.5 10.68 11.5 10C11.5 9.32 11.57 8.65 11.66 8H16.34C16.43 8.65 16.5 9.32 16.5 10C16.5 10.68 16.43 11.34 16.34 12ZM16.59 17.56C17.19 16.45 17.65 15.25 17.97 14H20.92C19.96 15.65 18.43 16.93 16.59 17.56V17.56ZM18.36 12C18.44 11.34 18.5 10.68 18.5 10C18.5 9.32 18.44 8.66 18.36 8H21.74C21.9 8.64 22 9.31 22 10C22 10.69 21.9 11.36 21.74 12H18.36Z" fill="black" />
	<path d="M9.99 8C4.47 8 0 12.48 0 18C0 23.52 4.47 28 9.99 28C15.52 28 20 23.52 20 18C20 12.48 15.52 8 9.99 8ZM16.92 14H13.97C13.65 12.75 13.19 11.55 12.59 10.44C14.43 11.07 15.96 12.35 16.92 14ZM10 10.04C10.83 11.24 11.48 12.57 11.91 14H8.09C8.52 12.57 9.17 11.24 10 10.04ZM2.26 20C2.1 19.36 2 18.69 2 18C2 17.31 2.1 16.64 2.26 16H5.64C5.56 16.66 5.5 17.32 5.5 18C5.5 18.68 5.56 19.34 5.64 20H2.26ZM3.08 22H6.03C6.35 23.25 6.81 24.45 7.41 25.56C5.57 24.93 4.04 23.66 3.08 22V22ZM6.03 14H3.08C4.04 12.34 5.57 11.07 7.41 10.44C6.81 11.55 6.35 12.75 6.03 14V14ZM10 25.96C9.17 24.76 8.52 23.43 8.09 22H11.91C11.48 23.43 10.83 24.76 10 25.96ZM12.34 20H7.66C7.57 19.34 7.5 18.68 7.5 18C7.5 17.32 7.57 16.65 7.66 16H12.34C12.43 16.65 12.5 17.32 12.5 18C12.5 18.68 12.43 19.34 12.34 20ZM12.59 25.56C13.19 24.45 13.65 23.25 13.97 22H16.92C15.96 23.65 14.43 24.93 12.59 25.56V25.56ZM14.36 20C14.44 19.34 14.5 18.68 14.5 18C14.5 17.32 14.44 16.66 14.36 16H17.74C17.9 16.64 18 17.31 18 18C18 18.69 17.9 19.36 17.74 20H14.36Z" fill="black" />
</svg>
